<svg width="298" height="72" viewBox="0 0 298 72" fill="none" xmlns="http://www.w3.org/2000/svg">
<g filter="url(#filter0_d)">
<rect x="4" width="64" height="64" rx="20" fill="#FFD666"/>
</g>
<path d="M59 16L28.0625 47L14 32.9091" stroke="black" stroke-width="5" stroke-linecap="round" stroke-linejoin="round"/>
<path d="M88.52 44.324C86.672 44.324 84.92 44.084 83.264 43.604C81.632 43.1 80.3 42.428 79.268 41.588C78.716 41.18 78.44 40.604 78.44 39.86C78.44 39.356 78.584 38.924 78.872 38.564C79.184 38.18 79.544 37.988 79.952 37.988C80.384 37.988 80.876 38.156 81.428 38.492C82.46 39.236 83.54 39.776 84.668 40.112C85.796 40.448 87.044 40.616 88.412 40.616C90.164 40.616 91.508 40.316 92.444 39.716C93.38 39.092 93.848 38.192 93.848 37.016C93.848 36.104 93.404 35.408 92.516 34.928C91.652 34.424 90.2 33.944 88.16 33.488C86.048 33.032 84.332 32.504 83.012 31.904C81.692 31.304 80.696 30.536 80.024 29.6C79.352 28.664 79.016 27.476 79.016 26.036C79.016 24.548 79.436 23.216 80.276 22.04C81.116 20.864 82.28 19.952 83.768 19.304C85.28 18.632 86.972 18.296 88.844 18.296C92.276 18.296 95.072 19.208 97.232 21.032C97.544 21.296 97.76 21.56 97.88 21.824C98.024 22.064 98.096 22.376 98.096 22.76C98.096 23.264 97.94 23.708 97.628 24.092C97.34 24.452 96.992 24.632 96.584 24.632C96.344 24.632 96.116 24.596 95.9 24.524C95.708 24.452 95.444 24.32 95.108 24.128C94.124 23.408 93.164 22.88 92.228 22.544C91.316 22.184 90.188 22.004 88.844 22.004C87.212 22.004 85.916 22.34 84.956 23.012C84.02 23.66 83.552 24.572 83.552 25.748C83.552 26.732 83.972 27.488 84.812 28.016C85.652 28.544 87.08 29.036 89.096 29.492C91.232 29.972 92.96 30.512 94.28 31.112C95.624 31.688 96.644 32.432 97.34 33.344C98.06 34.256 98.42 35.396 98.42 36.764C98.42 38.252 98 39.572 97.16 40.724C96.344 41.852 95.18 42.74 93.668 43.388C92.18 44.012 90.464 44.324 88.52 44.324ZM104.529 44.216C103.881 44.216 103.341 44.036 102.909 43.676C102.501 43.292 102.297 42.752 102.297 42.056V28.16C102.297 27.464 102.501 26.936 102.909 26.576C103.341 26.216 103.881 26.036 104.529 26.036C105.177 26.036 105.717 26.216 106.149 26.576C106.581 26.936 106.797 27.464 106.797 28.16V42.056C106.797 42.752 106.581 43.292 106.149 43.676C105.717 44.036 105.177 44.216 104.529 44.216ZM104.529 22.832C103.713 22.832 103.065 22.616 102.585 22.184C102.105 21.728 101.865 21.14 101.865 20.42C101.865 19.7 102.105 19.124 102.585 18.692C103.065 18.26 103.713 18.044 104.529 18.044C105.321 18.044 105.957 18.26 106.437 18.692C106.941 19.124 107.193 19.7 107.193 20.42C107.193 21.14 106.953 21.728 106.473 22.184C105.993 22.616 105.345 22.832 104.529 22.832ZM132.354 25.964C134.274 25.964 135.738 26.54 136.746 27.692C137.778 28.82 138.294 30.656 138.294 33.2V42.056C138.294 42.752 138.078 43.292 137.646 43.676C137.238 44.036 136.698 44.216 136.026 44.216C135.378 44.216 134.838 44.036 134.406 43.676C133.998 43.292 133.794 42.752 133.794 42.056V33.2C133.794 31.88 133.554 30.944 133.074 30.392C132.618 29.816 131.91 29.528 130.95 29.528C129.774 29.528 128.838 29.936 128.142 30.752C127.446 31.544 127.098 32.636 127.098 34.028V42.056C127.098 42.752 126.882 43.292 126.45 43.676C126.042 44.036 125.514 44.216 124.866 44.216C124.218 44.216 123.678 44.036 123.246 43.676C122.814 43.292 122.598 42.752 122.598 42.056V33.2C122.598 31.88 122.358 30.944 121.878 30.392C121.422 29.816 120.714 29.528 119.754 29.528C118.578 29.528 117.642 29.936 116.946 30.752C116.274 31.544 115.938 32.636 115.938 34.028V42.056C115.938 42.752 115.722 43.292 115.29 43.676C114.858 44.036 114.318 44.216 113.67 44.216C113.022 44.216 112.482 44.036 112.05 43.676C111.642 43.292 111.438 42.752 111.438 42.056V28.124C111.438 27.452 111.654 26.936 112.086 26.576C112.518 26.216 113.058 26.036 113.706 26.036C114.33 26.036 114.834 26.216 115.218 26.576C115.626 26.912 115.83 27.404 115.83 28.052V28.916C116.382 27.956 117.114 27.224 118.026 26.72C118.962 26.216 120.03 25.964 121.23 25.964C123.87 25.964 125.634 27.068 126.522 29.276C127.05 28.268 127.83 27.464 128.862 26.864C129.894 26.264 131.058 25.964 132.354 25.964ZM152.983 25.964C154.495 25.964 155.839 26.348 157.015 27.116C158.215 27.884 159.139 28.976 159.787 30.392C160.459 31.784 160.795 33.392 160.795 35.216C160.795 37.04 160.459 38.636 159.787 40.004C159.139 41.372 158.227 42.428 157.051 43.172C155.875 43.916 154.519 44.288 152.983 44.288C151.735 44.288 150.619 44.024 149.635 43.496C148.651 42.968 147.895 42.236 147.367 41.3V48.644C147.367 49.268 147.163 49.76 146.755 50.12C146.347 50.48 145.807 50.66 145.135 50.66C144.463 50.66 143.911 50.468 143.479 50.084C143.071 49.7 142.867 49.196 142.867 48.572V28.16C142.867 27.512 143.059 26.996 143.443 26.612C143.851 26.228 144.391 26.036 145.063 26.036C145.735 26.036 146.275 26.228 146.683 26.612C147.091 26.996 147.295 27.512 147.295 28.16V29.06C147.823 28.076 148.579 27.32 149.563 26.792C150.571 26.24 151.711 25.964 152.983 25.964ZM151.795 40.796C153.211 40.796 154.315 40.316 155.107 39.356C155.899 38.372 156.295 36.992 156.295 35.216C156.295 33.392 155.899 31.976 155.107 30.968C154.315 29.96 153.211 29.456 151.795 29.456C150.355 29.456 149.239 29.948 148.447 30.932C147.679 31.916 147.295 33.32 147.295 35.144C147.295 36.944 147.679 38.336 148.447 39.32C149.239 40.304 150.355 40.796 151.795 40.796ZM166.72 44.216C166.072 44.216 165.532 44.036 165.1 43.676C164.692 43.292 164.488 42.752 164.488 42.056V20.564C164.488 19.868 164.692 19.34 165.1 18.98C165.532 18.62 166.072 18.44 166.72 18.44C167.368 18.44 167.908 18.62 168.34 18.98C168.772 19.34 168.988 19.868 168.988 20.564V42.056C168.988 42.752 168.772 43.292 168.34 43.676C167.908 44.036 167.368 44.216 166.72 44.216ZM185.905 27.332C186.097 26.9 186.349 26.588 186.661 26.396C186.997 26.18 187.357 26.072 187.741 26.072C188.293 26.072 188.785 26.264 189.217 26.648C189.673 27.008 189.901 27.464 189.901 28.016C189.901 28.28 189.829 28.556 189.685 28.844L179.857 49.436C179.449 50.252 178.813 50.66 177.949 50.66C177.397 50.66 176.905 50.48 176.473 50.12C176.065 49.784 175.861 49.352 175.861 48.824C175.861 48.56 175.933 48.26 176.077 47.924L178.525 42.776L171.829 28.844C171.709 28.604 171.649 28.328 171.649 28.016C171.649 27.464 171.877 26.996 172.333 26.612C172.813 26.228 173.353 26.036 173.953 26.036C174.361 26.036 174.733 26.144 175.069 26.36C175.405 26.552 175.669 26.864 175.861 27.296L180.901 38.42L185.905 27.332ZM211.064 44.18C210.344 44.18 209.768 43.976 209.336 43.568C208.928 43.136 208.724 42.572 208.724 41.876V22.436H202.172C200.732 22.436 200.012 21.8 200.012 20.528C200.012 19.256 200.732 18.62 202.172 18.62H219.92C221.36 18.62 222.08 19.256 222.08 20.528C222.08 21.8 221.36 22.436 219.92 22.436H213.368V41.876C213.368 42.572 213.152 43.136 212.72 43.568C212.312 43.976 211.76 44.18 211.064 44.18ZM229.645 44.288C227.845 44.288 226.261 43.916 224.893 43.172C223.549 42.428 222.505 41.36 221.761 39.968C221.017 38.576 220.645 36.956 220.645 35.108C220.645 33.26 221.017 31.652 221.761 30.284C222.505 28.892 223.549 27.824 224.893 27.08C226.261 26.336 227.845 25.964 229.645 25.964C231.445 25.964 233.017 26.336 234.361 27.08C235.729 27.824 236.773 28.892 237.493 30.284C238.237 31.652 238.609 33.26 238.609 35.108C238.609 36.956 238.237 38.576 237.493 39.968C236.773 41.36 235.729 42.428 234.361 43.172C233.017 43.916 231.445 44.288 229.645 44.288ZM229.609 40.796C231.073 40.796 232.189 40.316 232.957 39.356C233.725 38.396 234.109 36.98 234.109 35.108C234.109 33.26 233.725 31.856 232.957 30.896C232.189 29.912 231.085 29.42 229.645 29.42C228.205 29.42 227.089 29.912 226.297 30.896C225.529 31.856 225.145 33.26 225.145 35.108C225.145 36.98 225.529 38.396 226.297 39.356C227.065 40.316 228.169 40.796 229.609 40.796ZM254.726 44C254.03 44 253.478 43.808 253.07 43.424C252.686 43.04 252.494 42.5 252.494 41.804V20.816C252.494 20.12 252.686 19.58 253.07 19.196C253.478 18.812 254.03 18.62 254.726 18.62H261.854C266.006 18.62 269.222 19.736 271.502 21.968C273.806 24.176 274.958 27.284 274.958 31.292C274.958 35.324 273.806 38.456 271.502 40.688C269.222 42.896 266.006 44 261.854 44H254.726ZM261.566 40.22C267.398 40.22 270.314 37.244 270.314 31.292C270.314 25.364 267.398 22.4 261.566 22.4H257.138V40.22H261.566ZM287.266 44.288C285.466 44.288 283.882 43.916 282.514 43.172C281.17 42.428 280.126 41.36 279.382 39.968C278.638 38.576 278.266 36.956 278.266 35.108C278.266 33.26 278.638 31.652 279.382 30.284C280.126 28.892 281.17 27.824 282.514 27.08C283.882 26.336 285.466 25.964 287.266 25.964C289.066 25.964 290.638 26.336 291.982 27.08C293.35 27.824 294.394 28.892 295.114 30.284C295.858 31.652 296.23 33.26 296.23 35.108C296.23 36.956 295.858 38.576 295.114 39.968C294.394 41.36 293.35 42.428 291.982 43.172C290.638 43.916 289.066 44.288 287.266 44.288ZM287.23 40.796C288.694 40.796 289.81 40.316 290.578 39.356C291.346 38.396 291.73 36.98 291.73 35.108C291.73 33.26 291.346 31.856 290.578 30.896C289.81 29.912 288.706 29.42 287.266 29.42C285.826 29.42 284.71 29.912 283.918 30.896C283.15 31.856 282.766 33.26 282.766 35.108C282.766 36.98 283.15 38.396 283.918 39.356C284.686 40.316 285.79 40.796 287.23 40.796Z" fill="black"/>
<defs>
<filter id="filter0_d" x="0" y="0" width="72" height="72" filterUnits="userSpaceOnUse" color-interpolation-filters="sRGB">
<feFlood flood-opacity="0" result="BackgroundImageFix"/>
<feColorMatrix in="SourceAlpha" type="matrix" values="0 0 0 0 0 0 0 0 0 0 0 0 0 0 0 0 0 0 127 0"/>
<feOffset dy="4"/>
<feGaussianBlur stdDeviation="2"/>
<feColorMatrix type="matrix" values="0 0 0 0 0 0 0 0 0 0 0 0 0 0 0 0 0 0 0.25 0"/>
<feBlend mode="normal" in2="BackgroundImageFix" result="effect1_dropShadow"/>
<feBlend mode="normal" in="SourceGraphic" in2="effect1_dropShadow" result="shape"/>
</filter>
</defs>
</svg>
